<?xml version="1.0" standalone="no"?>
<!DOCTYPE svg PUBLIC "-//W3C//DTD SVG 20010904//EN"
 "http://www.w3.org/TR/2001/REC-SVG-20010904/DTD/svg10.dtd">
<svg version="1.0" xmlns="http://www.w3.org/2000/svg"
 width="334.000000pt" height="426.000000pt" viewBox="0 0 334.000000 426.000000"
 preserveAspectRatio="xMidYMid meet">

<g transform="translate(0.000000,426.000000) scale(0.100000,-0.100000)"
fill="#000000" stroke="none">
<path d="M1075 4244 c-38 -8 -86 -23 -105 -32 l-35 -17 -3 -125 c-5 -210 27
-325 145 -517 37 -60 91 -148 120 -196 58 -94 93 -203 94 -288 1 -58 -10 -78
-61 -119 -39 -31 -42 -32 -56 -14 -16 21 0 36 -187 -172 -237 -262 -487 -634
-613 -910 -20 -44 -45 -99 -56 -123 -131 -287 -241 -705 -278 -1056 -7 -60
-16 -144 -22 -185 -5 -41 -10 -86 -11 -100 l-2 -25 128 -3 c124 -3 127 -2 136
20 5 13 17 95 26 183 50 485 147 834 342 1233 156 320 327 573 724 1074 283
356 387 541 445 787 22 98 69 185 132 250 74 74 136 104 222 105 l65 1 -2 -64
c-2 -83 -35 -150 -184 -376 -566 -859 -703 -1105 -829 -1485 -82 -248 -120
-478 -120 -730 0 -285 49 -460 198 -705 42 -68 87 -122 188 -221 144 -143 267
-233 414 -302 144 -67 219 -89 408 -117 105 -16 119 -16 225 -1 191 29 321 81
425 172 51 45 71 84 35 69 -105 -42 -185 -58 -314 -62 -223 -8 -414 32 -614
127 -62 30 -89 48 -95 66 -21 53 -4 1803 20 2074 6 69 18 166 27 215 9 50 19
108 22 129 3 22 11 41 16 42 6 2 31 -27 57 -64 26 -37 92 -129 147 -204 267
-366 411 -611 519 -883 22 -55 57 -134 77 -175 40 -82 113 -323 144 -477 26
-125 48 -313 57 -476 5 -109 9 -129 25 -137 21 -12 229 -13 246 -2 9 6 10 17
4 39 -5 18 -12 63 -16 100 -23 251 -41 373 -77 543 -116 547 -359 1058 -728
1530 -108 138 -294 348 -316 357 -7 3 -37 -16 -66 -41 -56 -49 -74 -57 -63
-28 3 9 13 49 21 87 35 167 116 366 253 621 86 161 121 293 121 454 0 93 -2
101 -23 115 -38 24 -215 57 -272 50 -179 -22 -334 -115 -430 -258 l-33 -49
-41 60 c-122 181 -369 282 -576 236z m205 -241 c155 -55 280 -230 280 -393 0
-53 -30 -179 -57 -241 l-18 -42 -51 84 c-110 180 -197 334 -231 404 -33 71
-52 166 -40 199 7 18 44 14 117 -11z m585 -1119 c-49 -208 -99 -505 -125 -739
-5 -49 -13 -431 -16 -847 -5 -550 -10 -758 -18 -758 -19 0 -110 99 -171 185
-154 216 -208 403 -208 715 2 408 107 755 385 1270 47 85 102 189 123 230 41
79 56 103 61 97 2 -2 -12 -71 -31 -153z"/>
</g>
</svg>
